<mxfile host="app.diagrams.net" agent="Mozilla/5.0 (Windows NT 10.0; Win64; x64; rv:140.0) Gecko/20100101 Firefox/140.0" version="28.0.4">
  <diagram name="Página-1" id="cwW2ZIGUPcOVTtpgQe1q">
    <mxGraphModel dx="2583" dy="1399" grid="1" gridSize="10" guides="1" tooltips="1" connect="1" arrows="1" fold="1" page="1" pageScale="1" pageWidth="827" pageHeight="1169" math="0" shadow="0">
      <root>
        <mxCell id="0" />
        <mxCell id="1" parent="0" />
        <mxCell id="mU88ZA_8yO6nHGZMQXRA-48" value="" style="rounded=0;whiteSpace=wrap;html=1;fillColor=none;" parent="1" vertex="1">
          <mxGeometry x="1228" y="510" width="740" height="290" as="geometry" />
        </mxCell>
        <mxCell id="mU88ZA_8yO6nHGZMQXRA-29" value="" style="rounded=0;whiteSpace=wrap;html=1;fillColor=none;" parent="1" vertex="1">
          <mxGeometry x="1230" y="110" width="740" height="380" as="geometry" />
        </mxCell>
        <mxCell id="7xKhrpSAkfaQxBvkCq0g-8" style="edgeStyle=orthogonalEdgeStyle;rounded=0;orthogonalLoop=1;jettySize=auto;html=1;entryX=0.5;entryY=0;entryDx=0;entryDy=0;" parent="1" source="7xKhrpSAkfaQxBvkCq0g-1" target="7xKhrpSAkfaQxBvkCq0g-7" edge="1">
          <mxGeometry relative="1" as="geometry" />
        </mxCell>
        <mxCell id="7xKhrpSAkfaQxBvkCq0g-1" value="INICIO" style="rounded=0;whiteSpace=wrap;html=1;" parent="1" vertex="1">
          <mxGeometry x="309" y="110" width="210" height="50" as="geometry" />
        </mxCell>
        <mxCell id="7xKhrpSAkfaQxBvkCq0g-3" value="&lt;div&gt;&lt;font style=&quot;font-size: 18px;&quot; face=&quot;Lucida Console&quot;&gt;INICIALIZANDO&lt;/font&gt;&lt;/div&gt;&lt;div&gt;&lt;font face=&quot;Lucida Console&quot; style=&quot;font-size: 18px;&quot;&gt;DISPOSITIVO&lt;/font&gt;&lt;/div&gt;" style="rounded=1;whiteSpace=wrap;html=1;" parent="1" vertex="1">
          <mxGeometry x="309" y="270" width="210" height="50" as="geometry" />
        </mxCell>
        <mxCell id="7xKhrpSAkfaQxBvkCq0g-9" style="edgeStyle=orthogonalEdgeStyle;rounded=0;orthogonalLoop=1;jettySize=auto;html=1;" parent="1" source="7xKhrpSAkfaQxBvkCq0g-7" target="7xKhrpSAkfaQxBvkCq0g-3" edge="1">
          <mxGeometry relative="1" as="geometry" />
        </mxCell>
        <mxCell id="7xKhrpSAkfaQxBvkCq0g-7" value="INICIALIZAR MODULOS" style="rounded=0;whiteSpace=wrap;html=1;" parent="1" vertex="1">
          <mxGeometry x="320.5" y="190" width="187" height="50" as="geometry" />
        </mxCell>
        <mxCell id="3GnoFYa6DZ2fK6rtY7GM-6" style="edgeStyle=orthogonalEdgeStyle;rounded=0;orthogonalLoop=1;jettySize=auto;html=1;entryX=0.5;entryY=0;entryDx=0;entryDy=0;exitX=0.5;exitY=1;exitDx=0;exitDy=0;" parent="1" source="7xKhrpSAkfaQxBvkCq0g-3" target="CYvXOCJZOm5hRcxqQYmE-1" edge="1">
          <mxGeometry relative="1" as="geometry">
            <mxPoint x="414" y="440" as="sourcePoint" />
          </mxGeometry>
        </mxCell>
        <mxCell id="3GnoFYa6DZ2fK6rtY7GM-15" style="edgeStyle=orthogonalEdgeStyle;rounded=0;orthogonalLoop=1;jettySize=auto;html=1;entryX=0;entryY=0.5;entryDx=0;entryDy=0;startArrow=classic;startFill=1;" parent="1" source="CYvXOCJZOm5hRcxqQYmE-1" target="CYvXOCJZOm5hRcxqQYmE-4" edge="1">
          <mxGeometry relative="1" as="geometry" />
        </mxCell>
        <mxCell id="CYvXOCJZOm5hRcxqQYmE-1" value="&lt;div&gt;&lt;font style=&quot;font-size: 18px;&quot; face=&quot;Lucida Console&quot;&gt;Persiana&amp;lt;Nombre&amp;gt;&lt;br&gt;&lt;/font&gt;&lt;/div&gt;&lt;div&gt;&lt;font style=&quot;font-size: 18px;&quot; face=&quot;Lucida Console&quot;&gt;&amp;lt; &amp;nbsp;&amp;nbsp; ↑ &amp;nbsp;&amp;nbsp; ↓ &amp;nbsp;&amp;nbsp; &amp;gt;&lt;/font&gt;&lt;/div&gt;" style="rounded=1;whiteSpace=wrap;html=1;" parent="1" vertex="1">
          <mxGeometry x="309" y="360" width="210" height="50" as="geometry" />
        </mxCell>
        <mxCell id="3GnoFYa6DZ2fK6rtY7GM-12" style="edgeStyle=orthogonalEdgeStyle;rounded=0;orthogonalLoop=1;jettySize=auto;html=1;startArrow=classic;startFill=1;" parent="1" source="CYvXOCJZOm5hRcxqQYmE-4" target="CYvXOCJZOm5hRcxqQYmE-5" edge="1">
          <mxGeometry relative="1" as="geometry" />
        </mxCell>
        <mxCell id="CYvXOCJZOm5hRcxqQYmE-4" value="&lt;div&gt;&lt;font style=&quot;font-size: 18px;&quot; face=&quot;Lucida Console&quot;&gt;Configuración&lt;br&gt;&lt;/font&gt;&lt;/div&gt;&lt;div&gt;&lt;font style=&quot;font-size: 18px;&quot; face=&quot;Lucida Console&quot;&gt;&amp;lt; &amp;nbsp;&amp;nbsp; Entrar &amp;nbsp;&amp;nbsp; &amp;gt;&lt;/font&gt;&lt;/div&gt;" style="rounded=1;whiteSpace=wrap;html=1;" parent="1" vertex="1">
          <mxGeometry x="570" y="360" width="210" height="50" as="geometry" />
        </mxCell>
        <mxCell id="tx49UH4pPwmrueswRUUS-1" style="edgeStyle=orthogonalEdgeStyle;rounded=0;orthogonalLoop=1;jettySize=auto;html=1;entryX=0;entryY=0.5;entryDx=0;entryDy=0;" parent="1" source="CYvXOCJZOm5hRcxqQYmE-5" target="mU88ZA_8yO6nHGZMQXRA-1" edge="1">
          <mxGeometry relative="1" as="geometry" />
        </mxCell>
        <mxCell id="CYvXOCJZOm5hRcxqQYmE-5" value="&lt;div&gt;&lt;font style=&quot;font-size: 18px;&quot; face=&quot;Lucida Console&quot;&gt;Conf. Red wifi&lt;br&gt;&lt;/font&gt;&lt;/div&gt;&lt;div&gt;&lt;font style=&quot;font-size: 18px;&quot; face=&quot;Lucida Console&quot;&gt;↑↓&amp;nbsp;&amp;nbsp;&amp;nbsp;&amp;nbsp;&amp;nbsp;&amp;nbsp;&amp;nbsp;&amp;nbsp;&amp;nbsp; OK &amp;gt;&lt;/font&gt;&lt;/div&gt;" style="rounded=1;whiteSpace=wrap;html=1;" parent="1" vertex="1">
          <mxGeometry x="570" y="450" width="210" height="50" as="geometry" />
        </mxCell>
        <mxCell id="mU88ZA_8yO6nHGZMQXRA-5" style="edgeStyle=orthogonalEdgeStyle;rounded=0;orthogonalLoop=1;jettySize=auto;html=1;entryX=0;entryY=0.5;entryDx=0;entryDy=0;" parent="1" source="CYvXOCJZOm5hRcxqQYmE-6" target="mU88ZA_8yO6nHGZMQXRA-2" edge="1">
          <mxGeometry relative="1" as="geometry" />
        </mxCell>
        <mxCell id="mU88ZA_8yO6nHGZMQXRA-12" style="edgeStyle=orthogonalEdgeStyle;rounded=0;orthogonalLoop=1;jettySize=auto;html=1;entryX=0.5;entryY=1;entryDx=0;entryDy=0;startArrow=classic;startFill=1;" parent="1" source="CYvXOCJZOm5hRcxqQYmE-6" target="CYvXOCJZOm5hRcxqQYmE-5" edge="1">
          <mxGeometry relative="1" as="geometry" />
        </mxCell>
        <mxCell id="CYvXOCJZOm5hRcxqQYmE-6" value="&lt;div&gt;&lt;font style=&quot;font-size: 18px;&quot; face=&quot;Lucida Console&quot;&gt;Conf. UTC Time&lt;br&gt;&lt;/font&gt;&lt;/div&gt;&lt;div&gt;&lt;font style=&quot;font-size: 18px;&quot; face=&quot;Lucida Console&quot;&gt;↑↓&amp;nbsp;&amp;nbsp;&amp;nbsp;&amp;nbsp;&amp;nbsp;&amp;nbsp;&amp;nbsp;&amp;nbsp;&amp;nbsp; OK &amp;gt;&lt;/font&gt;&lt;/div&gt;" style="rounded=1;whiteSpace=wrap;html=1;" parent="1" vertex="1">
          <mxGeometry x="570" y="540" width="210" height="50" as="geometry" />
        </mxCell>
        <mxCell id="3GnoFYa6DZ2fK6rtY7GM-20" style="edgeStyle=orthogonalEdgeStyle;rounded=0;orthogonalLoop=1;jettySize=auto;html=1;entryX=0;entryY=0.5;entryDx=0;entryDy=0;" parent="1" source="CYvXOCJZOm5hRcxqQYmE-9" target="3GnoFYa6DZ2fK6rtY7GM-2" edge="1">
          <mxGeometry relative="1" as="geometry" />
        </mxCell>
        <mxCell id="CYvXOCJZOm5hRcxqQYmE-9" value="&lt;div&gt;&lt;font style=&quot;font-size: 18px;&quot; face=&quot;Lucida Console&quot;&gt;Zona UTC: &amp;lt;Hr&amp;gt;&lt;br&gt;&lt;/font&gt;&lt;/div&gt;&lt;div&gt;&lt;div&gt;&lt;div&gt;&lt;div&gt;&lt;div&gt;&lt;div&gt;&lt;div&gt;&lt;font style=&quot;font-size: 18px;&quot; face=&quot;Lucida Console&quot;&gt;↑↓ Cambiar&amp;nbsp;&amp;nbsp; &lt;/font&gt;&lt;font style=&quot;font-size: 18px;&quot; face=&quot;Lucida Console&quot;&gt;OK&amp;gt;&lt;/font&gt;&lt;/div&gt;&lt;/div&gt;&lt;/div&gt;&lt;/div&gt;&lt;/div&gt;&lt;/div&gt;&lt;/div&gt;" style="rounded=1;whiteSpace=wrap;html=1;" parent="1" vertex="1">
          <mxGeometry x="1240" y="630" width="210" height="50" as="geometry" />
        </mxCell>
        <mxCell id="mU88ZA_8yO6nHGZMQXRA-47" style="edgeStyle=orthogonalEdgeStyle;rounded=0;orthogonalLoop=1;jettySize=auto;html=1;" parent="1" source="CYvXOCJZOm5hRcxqQYmE-14" target="mU88ZA_8yO6nHGZMQXRA-42" edge="1">
          <mxGeometry relative="1" as="geometry" />
        </mxCell>
        <mxCell id="CYvXOCJZOm5hRcxqQYmE-14" value="GUARDAR DATOS UTC TIME" style="rounded=0;whiteSpace=wrap;html=1;" parent="1" vertex="1">
          <mxGeometry x="1744.25" y="630" width="209.5" height="50" as="geometry" />
        </mxCell>
        <mxCell id="3GnoFYa6DZ2fK6rtY7GM-21" style="edgeStyle=orthogonalEdgeStyle;rounded=0;orthogonalLoop=1;jettySize=auto;html=1;entryX=0;entryY=0.5;entryDx=0;entryDy=0;" parent="1" source="3GnoFYa6DZ2fK6rtY7GM-2" target="CYvXOCJZOm5hRcxqQYmE-14" edge="1">
          <mxGeometry relative="1" as="geometry" />
        </mxCell>
        <mxCell id="3GnoFYa6DZ2fK6rtY7GM-2" value="&lt;div&gt;&lt;font style=&quot;font-size: 18px;&quot; face=&quot;Lucida Console&quot;&gt;Confirmar: &amp;lt;Hr&amp;gt;&lt;br&gt;&lt;/font&gt;&lt;/div&gt;&lt;div&gt;&lt;div&gt;&lt;div&gt;&lt;div&gt;&lt;div&gt;&lt;div&gt;&lt;div&gt;&lt;font style=&quot;font-size: 18px;&quot; face=&quot;Lucida Console&quot;&gt;&amp;lt; No&amp;nbsp;&amp;nbsp;&amp;nbsp;&amp;nbsp;&amp;nbsp;&amp;nbsp;&amp;nbsp; Si &lt;/font&gt;&lt;font style=&quot;font-size: 18px;&quot; face=&quot;Lucida Console&quot;&gt;&amp;gt;&lt;/font&gt;&lt;/div&gt;&lt;/div&gt;&lt;/div&gt;&lt;/div&gt;&lt;/div&gt;&lt;/div&gt;&lt;/div&gt;" style="rounded=1;whiteSpace=wrap;html=1;" parent="1" vertex="1">
          <mxGeometry x="1494" y="630" width="210" height="50" as="geometry" />
        </mxCell>
        <mxCell id="mU88ZA_8yO6nHGZMQXRA-7" style="edgeStyle=orthogonalEdgeStyle;rounded=0;orthogonalLoop=1;jettySize=auto;html=1;entryX=1;entryY=0.5;entryDx=0;entryDy=0;exitX=1;exitY=0.5;exitDx=0;exitDy=0;" parent="1" source="mU88ZA_8yO6nHGZMQXRA-1" target="7xKhrpSAkfaQxBvkCq0g-3" edge="1">
          <mxGeometry relative="1" as="geometry">
            <Array as="points">
              <mxPoint x="1090" y="475" />
              <mxPoint x="1090" y="295" />
            </Array>
          </mxGeometry>
        </mxCell>
        <mxCell id="mU88ZA_8yO6nHGZMQXRA-1" value="&lt;div&gt;MENU CONFIGURACIÓN&lt;/div&gt;&lt;div&gt;RED WIFI&lt;br&gt;&lt;/div&gt;" style="rounded=0;whiteSpace=wrap;html=1;" parent="1" vertex="1">
          <mxGeometry x="838.5" y="450" width="187" height="50" as="geometry" />
        </mxCell>
        <mxCell id="mU88ZA_8yO6nHGZMQXRA-16" style="edgeStyle=orthogonalEdgeStyle;rounded=0;orthogonalLoop=1;jettySize=auto;html=1;entryX=1;entryY=0.5;entryDx=0;entryDy=0;" parent="1" source="mU88ZA_8yO6nHGZMQXRA-2" target="7xKhrpSAkfaQxBvkCq0g-3" edge="1">
          <mxGeometry relative="1" as="geometry">
            <Array as="points">
              <mxPoint x="1090" y="570" />
              <mxPoint x="1090" y="295" />
            </Array>
          </mxGeometry>
        </mxCell>
        <mxCell id="mU88ZA_8yO6nHGZMQXRA-2" value="&lt;div&gt;MENU CONFIGURACIÓN&lt;/div&gt;&lt;div&gt;ZONA UTC&lt;br&gt;&lt;/div&gt;" style="rounded=0;whiteSpace=wrap;html=1;" parent="1" vertex="1">
          <mxGeometry x="838.5" y="540" width="187" height="50" as="geometry" />
        </mxCell>
        <mxCell id="mU88ZA_8yO6nHGZMQXRA-10" value="" style="curved=1;endArrow=classic;html=1;rounded=0;entryX=0;entryY=0.5;entryDx=0;entryDy=0;exitX=1;exitY=0.5;exitDx=0;exitDy=0;startArrow=classic;startFill=1;dashed=1;" parent="1" source="CYvXOCJZOm5hRcxqQYmE-4" target="CYvXOCJZOm5hRcxqQYmE-1" edge="1">
          <mxGeometry width="50" height="50" relative="1" as="geometry">
            <mxPoint x="460" y="450" as="sourcePoint" />
            <mxPoint x="60" y="385" as="targetPoint" />
            <Array as="points">
              <mxPoint x="880" y="440" />
              <mxPoint x="170" y="430" />
            </Array>
          </mxGeometry>
        </mxCell>
        <mxCell id="mU88ZA_8yO6nHGZMQXRA-11" value="" style="curved=1;endArrow=classic;html=1;rounded=0;entryX=0.5;entryY=0;entryDx=0;entryDy=0;exitX=0.5;exitY=1;exitDx=0;exitDy=0;startArrow=classic;startFill=1;dashed=1;" parent="1" source="CYvXOCJZOm5hRcxqQYmE-6" target="CYvXOCJZOm5hRcxqQYmE-4" edge="1">
          <mxGeometry width="50" height="50" relative="1" as="geometry">
            <mxPoint x="675" y="680" as="sourcePoint" />
            <mxPoint x="70" y="395" as="targetPoint" />
            <Array as="points">
              <mxPoint x="670" y="620" />
              <mxPoint x="530" y="610" />
              <mxPoint x="540" y="330" />
              <mxPoint x="675" y="330" />
            </Array>
          </mxGeometry>
        </mxCell>
        <mxCell id="mU88ZA_8yO6nHGZMQXRA-18" style="edgeStyle=orthogonalEdgeStyle;rounded=0;orthogonalLoop=1;jettySize=auto;html=1;entryX=0.5;entryY=0;entryDx=0;entryDy=0;" parent="1" source="mU88ZA_8yO6nHGZMQXRA-17" target="mU88ZA_8yO6nHGZMQXRA-20" edge="1">
          <mxGeometry relative="1" as="geometry">
            <mxPoint x="1346" y="230" as="targetPoint" />
          </mxGeometry>
        </mxCell>
        <mxCell id="mU88ZA_8yO6nHGZMQXRA-17" value="INICIO" style="rounded=0;whiteSpace=wrap;html=1;" parent="1" vertex="1">
          <mxGeometry x="1252.5" y="130" width="187" height="50" as="geometry" />
        </mxCell>
        <mxCell id="mU88ZA_8yO6nHGZMQXRA-19" style="edgeStyle=orthogonalEdgeStyle;rounded=0;orthogonalLoop=1;jettySize=auto;html=1;entryX=0;entryY=0.5;entryDx=0;entryDy=0;" parent="1" source="mU88ZA_8yO6nHGZMQXRA-20" target="mU88ZA_8yO6nHGZMQXRA-22" edge="1">
          <mxGeometry relative="1" as="geometry" />
        </mxCell>
        <mxCell id="mU88ZA_8yO6nHGZMQXRA-20" value="&lt;div&gt;&lt;font style=&quot;font-size: 18px;&quot; face=&quot;Lucida Console&quot;&gt;Red:&amp;nbsp; &amp;lt;Nombre&amp;gt; &amp;nbsp; &lt;br&gt;&lt;/font&gt;&lt;/div&gt;&lt;div&gt;&lt;div&gt;&lt;div&gt;&lt;font style=&quot;font-size: 18px;&quot; face=&quot;Lucida Console&quot;&gt;↑↓ Cambiar&amp;nbsp;&amp;nbsp; &lt;/font&gt;&lt;font style=&quot;font-size: 18px;&quot; face=&quot;Lucida Console&quot;&gt;OK&amp;gt;&lt;/font&gt;&lt;/div&gt;&lt;/div&gt;&lt;/div&gt;" style="rounded=1;whiteSpace=wrap;html=1;" parent="1" vertex="1">
          <mxGeometry x="1241" y="230" width="210" height="50" as="geometry" />
        </mxCell>
        <mxCell id="mU88ZA_8yO6nHGZMQXRA-21" style="edgeStyle=orthogonalEdgeStyle;rounded=0;orthogonalLoop=1;jettySize=auto;html=1;" parent="1" source="mU88ZA_8yO6nHGZMQXRA-22" target="mU88ZA_8yO6nHGZMQXRA-24" edge="1">
          <mxGeometry relative="1" as="geometry" />
        </mxCell>
        <mxCell id="mU88ZA_8yO6nHGZMQXRA-22" value="&lt;div&gt;&lt;font style=&quot;font-size: 18px;&quot; face=&quot;Lucida Console&quot;&gt;Pwd: ___________ &lt;br&gt;&lt;/font&gt;&lt;/div&gt;&lt;div&gt;&lt;font style=&quot;font-size: 18px;&quot; face=&quot;Lucida Console&quot;&gt;↑↓ Cambiar&amp;nbsp; OK&amp;lt;&amp;gt;&lt;/font&gt;&lt;/div&gt;" style="rounded=1;whiteSpace=wrap;html=1;" parent="1" vertex="1">
          <mxGeometry x="1494" y="230" width="210" height="50" as="geometry" />
        </mxCell>
        <mxCell id="mU88ZA_8yO6nHGZMQXRA-23" style="edgeStyle=orthogonalEdgeStyle;rounded=0;orthogonalLoop=1;jettySize=auto;html=1;entryX=0;entryY=0.5;entryDx=0;entryDy=0;" parent="1" source="mU88ZA_8yO6nHGZMQXRA-24" target="mU88ZA_8yO6nHGZMQXRA-25" edge="1">
          <mxGeometry relative="1" as="geometry" />
        </mxCell>
        <mxCell id="mU88ZA_8yO6nHGZMQXRA-24" value="&lt;div&gt;&lt;font style=&quot;font-size: 18px;&quot; face=&quot;Lucida Console&quot;&gt;Pwd: ___________ &lt;br&gt;&lt;/font&gt;&lt;/div&gt;&lt;div&gt;&lt;font style=&quot;font-size: 18px;&quot; face=&quot;Lucida Console&quot;&gt;Confirmar en Xs&lt;/font&gt;&lt;/div&gt;" style="rounded=1;whiteSpace=wrap;html=1;" parent="1" vertex="1">
          <mxGeometry x="1494" y="330" width="210" height="50" as="geometry" />
        </mxCell>
        <mxCell id="mU88ZA_8yO6nHGZMQXRA-27" style="edgeStyle=orthogonalEdgeStyle;rounded=0;orthogonalLoop=1;jettySize=auto;html=1;entryX=0.5;entryY=0;entryDx=0;entryDy=0;" parent="1" source="mU88ZA_8yO6nHGZMQXRA-25" target="mU88ZA_8yO6nHGZMQXRA-26" edge="1">
          <mxGeometry relative="1" as="geometry" />
        </mxCell>
        <mxCell id="mU88ZA_8yO6nHGZMQXRA-25" value="GUARDAR DATOS WIFI" style="rounded=0;whiteSpace=wrap;html=1;" parent="1" vertex="1">
          <mxGeometry x="1744.25" y="330" width="209.5" height="50" as="geometry" />
        </mxCell>
        <mxCell id="mU88ZA_8yO6nHGZMQXRA-26" value="REINICIO" style="rounded=0;whiteSpace=wrap;html=1;" parent="1" vertex="1">
          <mxGeometry x="1755.5" y="425" width="187" height="50" as="geometry" />
        </mxCell>
        <mxCell id="mU88ZA_8yO6nHGZMQXRA-30" value="&lt;div&gt;MENU CONFIGURACIÓN&lt;/div&gt;&lt;div&gt;RED WIFI&lt;br&gt;&lt;/div&gt;" style="text;html=1;align=center;verticalAlign=middle;whiteSpace=wrap;rounded=0;" parent="1" vertex="1">
          <mxGeometry x="1494" y="120" width="210" height="30" as="geometry" />
        </mxCell>
        <mxCell id="mU88ZA_8yO6nHGZMQXRA-45" style="edgeStyle=orthogonalEdgeStyle;rounded=0;orthogonalLoop=1;jettySize=auto;html=1;entryX=0.5;entryY=0;entryDx=0;entryDy=0;" parent="1" source="mU88ZA_8yO6nHGZMQXRA-33" target="CYvXOCJZOm5hRcxqQYmE-9" edge="1">
          <mxGeometry relative="1" as="geometry" />
        </mxCell>
        <mxCell id="mU88ZA_8yO6nHGZMQXRA-33" value="INICIO" style="rounded=0;whiteSpace=wrap;html=1;" parent="1" vertex="1">
          <mxGeometry x="1251.5" y="530" width="187" height="50" as="geometry" />
        </mxCell>
        <mxCell id="mU88ZA_8yO6nHGZMQXRA-34" style="edgeStyle=orthogonalEdgeStyle;rounded=0;orthogonalLoop=1;jettySize=auto;html=1;entryX=0;entryY=0.5;entryDx=0;entryDy=0;" parent="1" edge="1">
          <mxGeometry relative="1" as="geometry">
            <mxPoint x="1493" y="635" as="targetPoint" />
          </mxGeometry>
        </mxCell>
        <mxCell id="mU88ZA_8yO6nHGZMQXRA-36" style="edgeStyle=orthogonalEdgeStyle;rounded=0;orthogonalLoop=1;jettySize=auto;html=1;" parent="1" edge="1">
          <mxGeometry relative="1" as="geometry">
            <mxPoint x="1598" y="660" as="sourcePoint" />
          </mxGeometry>
        </mxCell>
        <mxCell id="mU88ZA_8yO6nHGZMQXRA-38" style="edgeStyle=orthogonalEdgeStyle;rounded=0;orthogonalLoop=1;jettySize=auto;html=1;entryX=0;entryY=0.5;entryDx=0;entryDy=0;" parent="1" edge="1">
          <mxGeometry relative="1" as="geometry">
            <mxPoint x="1703" y="735" as="sourcePoint" />
          </mxGeometry>
        </mxCell>
        <mxCell id="mU88ZA_8yO6nHGZMQXRA-42" value="REINICIO" style="rounded=0;whiteSpace=wrap;html=1;" parent="1" vertex="1">
          <mxGeometry x="1755.5" y="730" width="187" height="50" as="geometry" />
        </mxCell>
        <mxCell id="mU88ZA_8yO6nHGZMQXRA-43" value="&lt;div&gt;MENU CONFIGURACIÓN&lt;/div&gt;&lt;div&gt;ZONA UTC&lt;br&gt;&lt;/div&gt;" style="text;html=1;align=center;verticalAlign=middle;whiteSpace=wrap;rounded=0;" parent="1" vertex="1">
          <mxGeometry x="1493" y="520" width="210" height="30" as="geometry" />
        </mxCell>
        <mxCell id="tx49UH4pPwmrueswRUUS-2" value="&lt;div&gt;SIN PULSACIÓN&amp;nbsp;&lt;/div&gt;&lt;div&gt;DURANTE 10 SEGUNDOS&lt;/div&gt;" style="rounded=0;whiteSpace=wrap;html=1;" parent="1" vertex="1">
          <mxGeometry x="312" y="710" width="210" height="50" as="geometry" />
        </mxCell>
        <mxCell id="tx49UH4pPwmrueswRUUS-46" style="edgeStyle=orthogonalEdgeStyle;rounded=0;orthogonalLoop=1;jettySize=auto;html=1;entryX=0.5;entryY=1;entryDx=0;entryDy=0;" parent="1" source="tx49UH4pPwmrueswRUUS-3" target="tx49UH4pPwmrueswRUUS-14" edge="1">
          <mxGeometry relative="1" as="geometry">
            <Array as="points">
              <mxPoint x="417" y="950" />
              <mxPoint x="254" y="950" />
            </Array>
          </mxGeometry>
        </mxCell>
        <mxCell id="tx49UH4pPwmrueswRUUS-3" value="¿Tengo hora y fecha?" style="rhombus;whiteSpace=wrap;html=1;" parent="1" vertex="1">
          <mxGeometry x="364" y="815" width="106" height="90" as="geometry" />
        </mxCell>
        <mxCell id="tx49UH4pPwmrueswRUUS-40" style="edgeStyle=orthogonalEdgeStyle;rounded=0;orthogonalLoop=1;jettySize=auto;html=1;exitX=1;exitY=0.5;exitDx=0;exitDy=0;" parent="1" source="tx49UH4pPwmrueswRUUS-3" target="tx49UH4pPwmrueswRUUS-13" edge="1">
          <mxGeometry relative="1" as="geometry">
            <mxPoint x="608.5" y="890" as="sourcePoint" />
          </mxGeometry>
        </mxCell>
        <mxCell id="tx49UH4pPwmrueswRUUS-41" style="edgeStyle=orthogonalEdgeStyle;rounded=0;orthogonalLoop=1;jettySize=auto;html=1;entryX=0.5;entryY=1;entryDx=0;entryDy=0;" parent="1" source="tx49UH4pPwmrueswRUUS-13" target="tx49UH4pPwmrueswRUUS-14" edge="1">
          <mxGeometry relative="1" as="geometry">
            <Array as="points">
              <mxPoint x="612" y="950" />
              <mxPoint x="254" y="950" />
            </Array>
          </mxGeometry>
        </mxCell>
        <mxCell id="tx49UH4pPwmrueswRUUS-13" value="&lt;div&gt;&lt;font style=&quot;font-size: 18px;&quot; face=&quot;Lucida Console&quot;&gt;&amp;nbsp; 18:19&amp;nbsp; &amp;nbsp; 25ºC&amp;nbsp;&lt;/font&gt;&lt;/div&gt;&lt;div&gt;&lt;font style=&quot;font-size: 18px;&quot; face=&quot;Lucida Console&quot;&gt;14/12/2025&amp;nbsp;&lt;/font&gt;&lt;font style=&quot;font-size: 18px;&quot; face=&quot;Lucida Console&quot;&gt;&amp;nbsp;Lun.&lt;/font&gt;&lt;/div&gt;" style="rounded=1;whiteSpace=wrap;html=1;" parent="1" vertex="1">
          <mxGeometry x="507.5" y="835" width="210" height="50" as="geometry" />
        </mxCell>
        <mxCell id="tx49UH4pPwmrueswRUUS-14" value="Esperar 60 segundos" style="rounded=0;whiteSpace=wrap;html=1;" parent="1" vertex="1">
          <mxGeometry x="187.5" y="840" width="133" height="40" as="geometry" />
        </mxCell>
        <mxCell id="tx49UH4pPwmrueswRUUS-15" value="" style="endArrow=classic;html=1;rounded=0;exitX=0.5;exitY=1;exitDx=0;exitDy=0;entryX=0.5;entryY=0;entryDx=0;entryDy=0;" parent="1" source="tx49UH4pPwmrueswRUUS-2" target="tx49UH4pPwmrueswRUUS-3" edge="1">
          <mxGeometry width="50" height="50" relative="1" as="geometry">
            <mxPoint x="560" y="940" as="sourcePoint" />
            <mxPoint x="610" y="890" as="targetPoint" />
          </mxGeometry>
        </mxCell>
        <mxCell id="tx49UH4pPwmrueswRUUS-25" value="" style="endArrow=classic;html=1;rounded=0;exitX=1;exitY=0.5;exitDx=0;exitDy=0;entryX=0;entryY=0.5;entryDx=0;entryDy=0;" parent="1" source="tx49UH4pPwmrueswRUUS-14" target="tx49UH4pPwmrueswRUUS-3" edge="1">
          <mxGeometry width="50" height="50" relative="1" as="geometry">
            <mxPoint x="570" y="1010" as="sourcePoint" />
            <mxPoint x="620" y="960" as="targetPoint" />
          </mxGeometry>
        </mxCell>
        <mxCell id="tx49UH4pPwmrueswRUUS-28" value="&lt;div&gt;Si&lt;/div&gt;" style="text;html=1;align=center;verticalAlign=middle;whiteSpace=wrap;rounded=0;" parent="1" vertex="1">
          <mxGeometry x="447.5" y="830" width="60" height="30" as="geometry" />
        </mxCell>
        <mxCell id="tx49UH4pPwmrueswRUUS-47" value="No" style="text;html=1;align=center;verticalAlign=middle;whiteSpace=wrap;rounded=0;" parent="1" vertex="1">
          <mxGeometry x="400" y="900" width="60" height="30" as="geometry" />
        </mxCell>
        <mxCell id="NINl5sOclcaM_SsoJ-0E-1" value="Pulsación &amp;lt; y &amp;gt; a la vez durante 3 segungos" style="text;html=1;align=center;verticalAlign=middle;whiteSpace=wrap;rounded=0;" vertex="1" parent="1">
          <mxGeometry x="1594" y="290" width="156" height="30" as="geometry" />
        </mxCell>
      </root>
    </mxGraphModel>
  </diagram>
</mxfile>
